<svg xmlns="http://www.w3.org/2000/svg" xmlns:xlink="http://www.w3.org/1999/xlink" width="500" zoomAndPan="magnify" viewBox="0 0 375 170.249993" height="227" preserveAspectRatio="xMidYMid meet" version="1.2"><defs><clipPath id="da9d325882"><path d="M 0.824219 2 L 374.175781 2 L 374.175781 168 L 0.824219 168 Z M 0.824219 2 "/></clipPath><clipPath id="7ed2ba9d1e"><path d="M 0.824219 0.390625 L 374.175781 0.390625 L 374.175781 165.023438 L 0.824219 165.023438 Z M 0.824219 0.390625 "/></clipPath><clipPath id="e0b27eae62"><rect x="0" width="375" y="0" height="166"/></clipPath><clipPath id="a7c1a90218"><rect x="0" width="375" y="0" height="166"/></clipPath></defs><g id="2ee5865a30"><g clip-rule="nonzero" clip-path="url(#da9d325882)"><g transform="matrix(1,0,0,1,0.000000000000000111,2)"><g clip-path="url(#a7c1a90218)"><g clip-rule="nonzero" clip-path="url(#7ed2ba9d1e)"><g transform="matrix(1,0,0,1,0.000000000000000111,-0.000000000000000444)"><g id="48f246a523" clip-path="url(#e0b27eae62)"><path style=" stroke:none;fill-rule:nonzero;fill:#00583c;fill-opacity:1;" d="M 111.429688 125.511719 C 111.429688 125.511719 112.457031 126.070312 112.828125 126.164062 C 113.296875 126.257812 114.136719 126.628906 114.136719 126.628906 L 113.855469 126.816406 C 113.855469 126.816406 113.015625 126.910156 112.363281 126.910156 C 111.707031 126.910156 110.867188 126.722656 110.867188 126.722656 L 109.75 126.441406 L 109.933594 125.789062 L 110.214844 125.136719 L 109.5625 124.949219 L 46.558594 124.949219 L 46.558594 37.023438 L 43.105469 37.023438 L 43.105469 128.308594 L 134.390625 128.308594 L 134.390625 124.855469 L 110.777344 124.855469 Z M 111.429688 125.511719 "/><path style=" stroke:none;fill-rule:nonzero;fill:#00583c;fill-opacity:1;" d="M 110.867188 117.855469 C 110.683594 118.230469 110.867188 119.347656 110.589844 119.441406 C 110.308594 119.535156 110.960938 120.5625 110.960938 120.5625 L 110.777344 121.214844 L 134.484375 121.214844 L 134.484375 117.761719 Z M 50.851562 54.945312 C 50.945312 54.757812 51.320312 54.386719 51.597656 54.292969 C 51.785156 54.199219 51.972656 53.730469 52.253906 53.546875 C 52.53125 53.453125 52.71875 53.078125 52.71875 53.078125 C 52.71875 53.078125 52.34375 52.984375 52.066406 53.078125 C 51.785156 53.171875 51.597656 53.171875 51.597656 53.171875 C 51.597656 53.171875 51.410156 52.890625 51.410156 52.800781 C 51.410156 52.613281 50.851562 52.707031 50.851562 52.707031 L 50.664062 52.425781 C 50.664062 52.425781 50.757812 52.050781 51.039062 51.867188 C 51.410156 51.679688 51.039062 51.398438 50.851562 51.398438 C 50.664062 51.492188 50.199219 51.679688 50.292969 51.585938 C 50.386719 51.585938 50.292969 51.492188 50.292969 51.492188 L 50.292969 55.320312 L 50.480469 55.226562 C 50.480469 55.320312 50.851562 55.132812 50.851562 54.945312 Z M 51.039062 48.597656 C 51.226562 48.503906 51.597656 48.503906 51.597656 48.503906 L 52.066406 48.320312 C 52.066406 48.320312 52.253906 48.132812 52.71875 48.320312 L 52.71875 47.851562 C 52.71875 47.851562 53.183594 47.292969 53.371094 47.105469 C 53.558594 46.917969 53.09375 46.730469 53.09375 46.730469 L 52.34375 47.011719 L 51.597656 47.105469 L 51.132812 46.917969 L 51.132812 46.453125 C 51.132812 46.265625 51.597656 45.984375 51.597656 45.984375 L 51.597656 45.519531 C 51.597656 45.332031 51.878906 45.050781 51.878906 45.050781 L 52.253906 45.144531 L 52.4375 44.773438 C 52.625 44.398438 52.8125 44.585938 52.8125 44.585938 L 53.183594 44.957031 L 53.371094 45.238281 L 53.652344 45.238281 L 53.652344 42.90625 C 53.464844 42.8125 53.371094 42.8125 53.371094 42.8125 C 53.371094 42.8125 53.277344 42.4375 53.464844 42.34375 C 53.558594 42.25 53.652344 42.25 53.652344 42.160156 L 53.652344 36.929688 L 50.292969 36.929688 L 50.292969 49.4375 C 50.292969 49.34375 50.386719 49.34375 50.386719 49.253906 C 50.664062 49.066406 50.851562 48.597656 51.039062 48.597656 Z M 106.109375 121.214844 C 106.015625 120.9375 105.734375 120.28125 105.734375 120.28125 C 105.734375 120.28125 106.015625 119.441406 105.734375 119.164062 C 105.457031 118.882812 105.828125 117.949219 105.828125 117.949219 L 105.828125 117.761719 L 53.746094 117.761719 L 53.746094 53.546875 C 53.652344 53.640625 53.558594 53.640625 53.558594 53.730469 C 53.371094 53.824219 52.90625 53.917969 52.4375 54.105469 C 52.066406 54.292969 51.691406 54.757812 51.410156 55.132812 C 51.039062 55.503906 51.039062 55.503906 50.570312 55.597656 C 50.480469 55.597656 50.480469 55.691406 50.386719 55.691406 L 50.386719 121.214844 Z M 106.109375 121.214844 "/><path style=" stroke:none;fill-rule:nonzero;fill:#00583c;fill-opacity:1;" d="M 104.894531 114.121094 C 104.707031 113.75 104.613281 113.375 104.613281 113.1875 C 104.613281 112.910156 104.613281 112.164062 104.894531 111.789062 C 104.988281 111.695312 104.988281 111.136719 104.988281 110.574219 L 60.839844 110.574219 L 60.839844 52.707031 L 60.746094 52.613281 C 60.746094 52.613281 59.53125 52.050781 59.253906 51.867188 C 59.066406 51.679688 58.503906 51.492188 58.226562 51.398438 C 57.945312 51.210938 57.851562 51.210938 57.480469 51.492188 C 57.386719 51.492188 57.386719 51.585938 57.292969 51.585938 L 57.292969 114.121094 Z M 57.757812 40.105469 C 57.574219 40.105469 57.945312 39.824219 58.226562 39.730469 C 58.503906 39.542969 58.597656 39.917969 58.597656 39.917969 L 59.160156 39.636719 C 59.347656 39.546875 59.347656 39.824219 59.347656 39.824219 C 59.4375 39.824219 59.53125 39.917969 59.625 39.917969 C 59.8125 40.011719 59.90625 40.105469 59.90625 40.199219 L 59.90625 40.476562 C 59.90625 40.570312 60 40.664062 60.09375 40.664062 C 60.1875 40.757812 60.371094 40.851562 60.464844 40.945312 C 60.558594 41.039062 60.558594 41.039062 60.652344 41.039062 L 60.652344 36.839844 L 57.199219 36.839844 L 57.199219 40.199219 C 57.480469 40.292969 57.945312 40.105469 57.757812 40.105469 Z M 134.484375 110.667969 L 113.949219 110.667969 L 114.042969 110.761719 C 114.230469 111.042969 114.601562 111.136719 114.695312 111.507812 C 114.789062 111.882812 114.789062 112.070312 114.507812 112.535156 C 114.136719 112.910156 113.015625 113.1875 112.640625 113.28125 C 112.363281 113.28125 112.175781 113.84375 112.082031 114.121094 L 134.484375 114.121094 Z M 65.226562 43.277344 C 65.226562 43.277344 65.507812 43.464844 65.597656 43.464844 L 65.691406 43.558594 L 65.597656 43.558594 C 65.691406 43.652344 65.691406 43.746094 65.785156 43.839844 C 65.878906 43.933594 65.972656 43.933594 66.160156 43.933594 C 66.160156 43.839844 66.160156 43.746094 66.253906 43.746094 C 66.253906 43.652344 66.347656 43.558594 66.347656 43.558594 C 66.347656 43.464844 66.441406 43.277344 66.441406 43.183594 C 66.441406 43.089844 66.53125 43 66.53125 43 C 66.53125 42.90625 66.53125 42.90625 66.625 42.90625 C 66.90625 42.90625 67 43.183594 67.28125 43 C 67.371094 43 67.371094 42.90625 67.558594 42.90625 C 67.652344 42.90625 67.746094 42.90625 67.839844 42.8125 L 67.839844 37.117188 L 64.386719 37.117188 L 64.386719 42.8125 C 64.480469 42.90625 64.667969 43 64.757812 43.089844 C 64.945312 43.089844 65.132812 43.183594 65.226562 43.277344 Z M 134.484375 103.574219 L 120.296875 103.574219 C 120.015625 103.761719 119.828125 103.855469 119.734375 103.949219 C 119.550781 104.230469 119.550781 104.882812 119.550781 105.160156 C 119.550781 105.441406 119.644531 106.09375 119.644531 106.09375 C 119.644531 106.09375 119.550781 106.5625 119.457031 106.933594 L 134.578125 106.933594 L 134.578125 103.574219 Z M 67.1875 44.023438 C 67.371094 44.023438 67.558594 44.023438 67.746094 43.839844 C 67.746094 43.839844 67.839844 43.839844 67.933594 43.746094 L 67.933594 43.277344 C 67.839844 43.371094 67.746094 43.464844 67.652344 43.464844 C 67.558594 43.464844 67.464844 43.464844 67.371094 43.558594 C 67.1875 43.652344 67 43.933594 67.1875 44.023438 Z M 67.1875 44.023438 "/><path style=" stroke:none;fill-rule:nonzero;fill:#00583c;fill-opacity:1;" d="M 104.429688 107.027344 C 104.335938 106.84375 104.335938 106.5625 104.335938 106.375 C 104.335938 105.910156 104.335938 105.441406 104.523438 104.789062 C 104.613281 104.507812 104.613281 104.042969 104.523438 103.574219 L 67.839844 103.574219 L 67.839844 71 C 67.746094 70.71875 67.464844 70.535156 67.464844 70.535156 L 67.09375 70.253906 C 67.09375 70.253906 66.53125 69.878906 66.441406 69.785156 C 66.347656 69.601562 65.878906 69.226562 65.785156 69.039062 C 65.691406 68.851562 65.691406 68.292969 65.691406 68.292969 C 65.691406 68.292969 65.320312 67.917969 65.226562 67.734375 C 65.132812 67.546875 64.757812 67.171875 64.851562 66.988281 L 64.851562 66.332031 C 64.851562 66.332031 64.851562 65.585938 64.757812 65.398438 C 64.757812 65.214844 64.851562 64.933594 64.851562 64.652344 C 64.945312 64.371094 65.132812 62.878906 65.414062 62.691406 C 65.691406 62.414062 65.785156 62.132812 65.785156 62.132812 L 66.066406 61.667969 C 66.066406 61.667969 65.972656 60.917969 65.878906 60.824219 C 65.691406 60.640625 65.226562 59.894531 64.945312 59.707031 C 64.757812 59.613281 64.574219 58.773438 64.386719 58.398438 L 64.386719 107.121094 Z M 104.429688 107.027344 "/><path style=" stroke:none;fill-rule:nonzero;fill:#00583c;fill-opacity:1;" d="M 71.574219 75.105469 L 72.878906 77.535156 L 72.878906 78.375 L 71.480469 77.066406 L 71.480469 100.027344 L 104.148438 100.027344 C 104.054688 99.46875 103.214844 99.1875 102.75 99 C 102.28125 98.816406 101.253906 98.535156 100.882812 98.160156 C 100.507812 97.789062 99.667969 96.949219 99.574219 96.667969 L 75.027344 96.667969 L 75.027344 77.347656 L 74.1875 76.972656 L 73.71875 76.695312 L 73.8125 76.320312 L 73.8125 75.855469 C 73.8125 75.855469 73.347656 75.480469 73.253906 75.292969 C 73.160156 75.105469 72.507812 74.546875 72.507812 74.546875 C 72.507812 74.546875 72.039062 74.171875 71.945312 73.988281 C 71.851562 73.800781 71.761719 73.613281 71.761719 73.425781 C 71.761719 73.425781 71.761719 73.332031 71.667969 73.332031 L 71.667969 74.734375 C 71.574219 74.921875 71.667969 75.011719 71.574219 75.105469 Z M 72.132812 43.746094 L 72.132812 43.933594 C 72.226562 44.117188 72.507812 44.117188 72.691406 44.210938 L 72.878906 44.210938 C 72.972656 44.210938 72.972656 44.117188 73.066406 44.210938 L 73.160156 44.304688 C 73.253906 44.304688 73.253906 44.398438 73.347656 44.398438 C 73.441406 44.492188 73.535156 44.492188 73.535156 44.585938 L 73.535156 44.492188 L 73.625 44.585938 L 73.535156 44.585938 C 73.625 44.773438 73.71875 44.863281 74 44.773438 C 74.09375 44.773438 74.09375 44.679688 74.1875 44.679688 C 74.28125 44.585938 74.28125 44.679688 74.28125 44.773438 C 74.375 44.863281 74.464844 44.957031 74.375 45.050781 C 74.375 45.144531 74.1875 45.144531 74.1875 45.144531 C 74.09375 45.238281 74.09375 45.332031 74 45.332031 C 73.90625 45.425781 73.8125 45.425781 73.625 45.425781 C 73.625 45.519531 73.625 45.613281 73.71875 45.707031 C 73.71875 45.796875 73.8125 45.796875 73.8125 45.796875 C 73.8125 45.796875 73.8125 45.890625 73.90625 45.890625 C 74 45.984375 74 45.984375 74.09375 45.984375 C 74.1875 45.984375 74.1875 46.078125 74.28125 46.078125 C 74.375 46.171875 74.652344 46.078125 74.746094 46.078125 L 74.839844 46.078125 L 74.839844 37.210938 L 71.386719 37.210938 L 71.386719 43.746094 L 71.574219 43.746094 C 71.851562 43.558594 72.039062 43.652344 72.132812 43.746094 Z M 134.484375 96.574219 L 125.617188 96.574219 C 125.617188 96.574219 125.617188 98.160156 125.335938 98.816406 C 125.242188 99.09375 125.054688 99.5625 124.871094 100.027344 L 134.390625 100.027344 L 134.390625 96.574219 Z M 134.484375 92.839844 L 134.484375 89.386719 L 120.667969 89.386719 L 121.976562 89.855469 L 123.75 90.042969 C 123.75 90.042969 124.777344 90.320312 125.054688 90.320312 C 125.429688 90.414062 125.804688 90.972656 125.988281 91.347656 C 126.175781 91.628906 127.015625 91.535156 127.296875 91.722656 C 127.578125 91.90625 127.949219 92.5625 127.949219 92.5625 C 127.949219 92.5625 127.949219 92.65625 127.855469 92.746094 Z M 134.484375 92.839844 "/><path style=" stroke:none;fill-rule:nonzero;fill:#00583c;fill-opacity:1;" d="M 82.027344 92.839844 L 96.773438 92.839844 C 96.496094 92.5625 96.308594 92.375 96.214844 92.1875 C 96.027344 91.816406 95.839844 91.253906 95.65625 91.066406 C 95.46875 90.882812 95.65625 90.042969 95.65625 90.042969 L 95.65625 89.386719 L 82.027344 89.386719 L 82.027344 80.613281 L 81.46875 80.613281 L 79.878906 80.335938 C 79.878906 80.335938 79.414062 79.121094 79.132812 78.839844 C 78.945312 78.746094 78.667969 78.5625 78.574219 78.5625 L 78.574219 92.839844 Z M 81.375 54.757812 C 81.558594 54.757812 81.652344 54.757812 81.839844 54.851562 C 81.933594 54.851562 81.933594 54.945312 82.027344 54.945312 L 82.027344 50.464844 L 81.933594 50.558594 C 81.558594 50.839844 81.28125 51.117188 81.09375 51.492188 L 81.09375 51.398438 C 81 51.398438 80.90625 51.585938 80.90625 51.679688 C 80.8125 51.867188 80.535156 52.050781 80.441406 52.238281 C 80.347656 52.425781 80.441406 52.613281 80.253906 52.800781 C 80.160156 52.984375 80.160156 53.078125 80.160156 53.265625 C 80.160156 53.359375 80.253906 53.453125 80.347656 53.453125 C 80.441406 53.453125 80.535156 53.453125 80.535156 53.359375 C 80.628906 53.359375 80.628906 53.265625 80.71875 53.265625 C 80.8125 53.265625 80.8125 53.453125 80.8125 53.546875 C 80.90625 53.640625 81 53.640625 81 53.730469 C 81 53.730469 81 54.011719 81.09375 54.011719 C 81.09375 54.011719 81.09375 54.105469 81 54.105469 C 81.1875 54.199219 81.09375 54.386719 81 54.574219 C 81.09375 54.664062 81.1875 54.757812 81.375 54.757812 Z M 78.761719 45.796875 L 78.945312 45.796875 C 79.226562 45.890625 79.414062 45.984375 79.695312 46.078125 C 79.785156 46.078125 79.878906 46.171875 79.972656 46.171875 C 80.160156 46.265625 80.347656 46.265625 80.535156 46.265625 C 80.71875 46.171875 80.8125 45.984375 81 45.890625 C 81.09375 45.796875 81.28125 45.613281 81.46875 45.613281 C 81.46875 45.613281 81.46875 45.707031 81.375 45.796875 C 81.28125 45.890625 81.28125 46.078125 81.1875 46.171875 L 81.1875 46.359375 C 81.375 46.265625 81.46875 46.546875 81.375 46.636719 C 81.375 46.730469 81.09375 46.917969 81.1875 47.105469 C 81.09375 47.199219 81.1875 47.292969 81.28125 47.292969 C 81.46875 47.292969 81.558594 47.105469 81.652344 46.917969 C 81.746094 46.824219 81.839844 46.636719 81.933594 46.453125 C 81.933594 46.359375 81.933594 46.359375 82.027344 46.359375 L 82.027344 37.210938 L 78.574219 37.210938 L 78.574219 46.078125 C 78.667969 45.796875 78.761719 45.796875 78.761719 45.796875 Z M 79.695312 76.878906 L 80.066406 77.628906 L 81 76.695312 C 81 76.695312 81.375 75.855469 81.558594 75.574219 C 81.652344 75.386719 81.839844 75.105469 82.121094 75.015625 L 82.121094 70.535156 L 81.746094 70.625 C 81.746094 70.625 81.46875 70.8125 81.375 70.90625 C 81.28125 71 81.375 71 81.1875 71.09375 C 81 71.1875 80.90625 71.28125 80.90625 71.28125 L 80.441406 71.1875 L 79.695312 71.09375 L 79.414062 71.28125 C 79.414062 71.28125 79.414062 71.1875 78.667969 71.652344 L 78.667969 76.695312 C 78.855469 76.878906 79.039062 77.066406 79.226562 77.066406 C 79.414062 77.066406 79.695312 76.878906 79.695312 76.878906 Z M 108.160156 82.949219 L 109.09375 83.132812 L 110.121094 83.695312 L 111.148438 84.347656 L 112.269531 84.441406 L 112.921875 84.441406 L 114.414062 84.90625 C 114.414062 84.90625 115.535156 85.375 115.910156 85.746094 L 115.910156 85.839844 L 134.578125 85.839844 L 134.578125 82.386719 L 107.976562 82.386719 C 108.070312 82.386719 108.253906 82.480469 108.347656 82.480469 C 109.09375 82.855469 108.160156 82.949219 108.160156 82.949219 Z M 108.160156 82.949219 "/><path style=" stroke:none;fill-rule:nonzero;fill:#00583c;fill-opacity:1;" d="M 96.402344 85.746094 C 96.589844 85 94.722656 84.8125 94.628906 84.628906 C 94.628906 84.628906 94.066406 84.535156 93.882812 84.347656 C 93.695312 84.160156 92.855469 83.507812 92.855469 83.507812 C 92.386719 83.414062 90.988281 83.695312 90.988281 83.695312 L 90.707031 84.160156 C 90.707031 84.160156 89.867188 84.066406 89.585938 84.066406 C 89.308594 83.972656 88.933594 83.695312 88.933594 83.695312 L 88 83.695312 L 87.535156 83.414062 L 86.601562 83.320312 L 85.949219 83.132812 L 85.761719 82.480469 L 85.667969 82.386719 L 85.667969 85.839844 Z M 102.09375 82.667969 C 102.375 82.667969 102.5625 82.386719 102.5625 82.386719 C 102.5625 82.386719 102.65625 82.386719 102.65625 82.292969 L 101.628906 82.292969 L 101.722656 82.480469 C 101.628906 82.480469 101.910156 82.667969 102.09375 82.667969 Z M 93.601562 82.574219 L 94.066406 82.761719 L 94.628906 83.132812 L 95.1875 83.132812 L 96.867188 82.292969 L 93.132812 82.292969 Z M 93.601562 82.574219 "/><path style=" stroke:none;fill-rule:nonzero;fill:#00583c;fill-opacity:1;" d="M 86.695312 78.839844 C 86.695312 78.839844 87.066406 78.933594 87.347656 78.933594 C 87.628906 78.933594 87.441406 79.308594 87.441406 79.308594 L 87.535156 80.148438 L 87.535156 80.800781 C 87.628906 81.082031 87.347656 81.828125 87.347656 81.828125 C 87.347656 81.828125 87.535156 81.921875 87.722656 82.199219 C 87.90625 82.480469 88.09375 82.480469 88.5625 82.667969 C 89.027344 82.855469 89.214844 83.039062 89.214844 83.039062 L 90.242188 83.039062 C 90.519531 83.039062 90.894531 82.574219 90.894531 82.574219 L 91.734375 82.480469 L 89.027344 82.480469 L 89.027344 64.09375 C 88.933594 64.1875 88.839844 64.1875 88.839844 64.1875 C 88.652344 64.1875 88.46875 64.464844 88.375 64.464844 C 88.28125 64.464844 88.1875 64.652344 88.1875 64.746094 C 88.09375 64.839844 87.90625 64.933594 87.8125 64.933594 C 87.722656 64.933594 87.535156 64.933594 87.441406 65.027344 C 87.347656 65.121094 87.253906 65.304688 87.253906 65.398438 C 87.253906 65.492188 87.160156 65.773438 87.160156 65.773438 C 87.160156 65.867188 87.253906 66.054688 87.347656 66.238281 C 87.347656 66.425781 87.441406 66.519531 87.441406 66.519531 C 87.441406 66.519531 87.253906 67.171875 87.160156 67.171875 C 87.066406 67.171875 86.789062 67.453125 86.789062 67.453125 C 86.789062 67.453125 86.320312 68.011719 86.132812 68.105469 C 86.039062 68.105469 85.761719 68.386719 85.574219 68.667969 L 85.574219 78.558594 L 85.761719 78.46875 Z M 85.761719 58.585938 C 85.761719 58.679688 85.761719 58.679688 85.949219 58.679688 C 86.132812 58.679688 86.226562 58.585938 86.320312 58.585938 C 86.507812 58.398438 86.601562 58.210938 86.789062 58.121094 C 86.972656 57.933594 87.347656 57.746094 87.160156 57.464844 C 87.066406 57.371094 86.972656 57.277344 86.972656 57.1875 C 86.972656 57.09375 86.972656 57 86.878906 56.90625 C 86.878906 56.53125 86.695312 56.53125 86.601562 56.347656 C 86.601562 56.253906 86.601562 56.253906 86.695312 56.160156 C 86.789062 56.066406 86.878906 55.972656 87.066406 55.878906 C 87.160156 55.878906 87.253906 55.785156 87.253906 55.785156 L 87.253906 55.691406 L 87.441406 55.507812 C 87.535156 55.414062 87.628906 55.414062 87.628906 55.320312 C 87.722656 55.226562 87.722656 55.132812 87.8125 55.039062 C 88 54.851562 88.1875 54.480469 88 54.199219 C 87.90625 54.105469 87.8125 53.917969 87.722656 53.824219 C 87.722656 53.734375 87.628906 53.734375 87.628906 53.640625 C 87.628906 53.546875 87.722656 53.453125 87.722656 53.359375 C 87.628906 53.265625 87.441406 53.265625 87.441406 53.265625 C 87.441406 53.171875 87.628906 52.984375 87.722656 52.984375 C 87.722656 52.890625 87.722656 52.800781 87.8125 52.707031 L 87.90625 52.613281 C 88 52.519531 87.90625 52.425781 88 52.425781 C 88 52.332031 88.09375 52.332031 88.09375 52.238281 C 88.09375 52.144531 88 52.144531 88 52.050781 C 87.8125 51.867188 87.722656 51.773438 87.8125 51.585938 C 87.90625 51.398438 88 51.210938 88.1875 51.117188 C 88.28125 51.027344 88.28125 51.027344 88.375 50.839844 C 88.375 50.839844 88.375 50.746094 88.46875 50.652344 C 88.5625 50.558594 88.746094 50.558594 88.839844 50.558594 C 88.933594 50.558594 88.933594 50.558594 89.027344 50.652344 C 89.027344 50.652344 89.027344 50.746094 89.121094 50.746094 L 89.214844 50.746094 L 89.214844 37.023438 L 85.761719 37.023438 L 85.761719 46.171875 L 85.855469 46.078125 C 86.039062 45.890625 86.039062 45.707031 86.132812 45.519531 C 86.226562 45.425781 86.226562 45.238281 86.320312 45.050781 C 86.320312 44.957031 86.414062 44.863281 86.507812 44.773438 C 86.601562 44.679688 86.695312 44.679688 86.695312 44.679688 C 86.789062 44.585938 86.695312 44.585938 86.601562 44.492188 C 86.601562 44.398438 86.601562 44.398438 86.695312 44.304688 C 86.695312 44.210938 86.789062 44.117188 86.878906 44.117188 C 86.972656 44.117188 86.972656 44.210938 87.066406 44.304688 L 87.253906 44.304688 C 87.347656 44.304688 87.347656 44.398438 87.441406 44.492188 C 87.535156 44.585938 87.722656 44.585938 87.8125 44.679688 C 87.8125 44.773438 87.722656 44.957031 87.628906 44.957031 C 87.535156 45.050781 87.535156 45.238281 87.441406 45.332031 C 87.347656 45.332031 87.253906 45.425781 87.253906 45.519531 C 87.253906 45.519531 87.347656 45.613281 87.441406 45.613281 C 87.535156 45.613281 87.628906 45.707031 87.722656 45.796875 C 87.722656 45.890625 87.628906 45.984375 87.628906 46.078125 C 87.535156 46.171875 87.535156 46.265625 87.347656 46.359375 C 87.160156 46.453125 87.253906 46.730469 87.066406 46.824219 C 86.972656 46.824219 86.695312 46.824219 86.601562 46.730469 C 86.507812 46.730469 86.507812 46.730469 86.507812 46.640625 C 86.320312 46.546875 86.226562 46.730469 86.132812 46.824219 L 85.949219 46.824219 L 85.949219 58.210938 C 85.949219 58.210938 86.039062 58.210938 86.039062 58.304688 C 85.761719 58.398438 85.761719 58.585938 85.761719 58.585938 Z M 134.484375 78.746094 L 134.484375 75.292969 L 96.214844 75.292969 L 96.214844 57.09375 C 96.027344 57.1875 95.933594 57.277344 95.839844 57.371094 C 95.65625 57.464844 95.1875 57.839844 94.722656 57.933594 C 94.160156 58.027344 93.414062 58.027344 93.414062 58.027344 L 92.667969 58.210938 L 92.667969 60.359375 C 92.949219 60.453125 93.042969 60.640625 93.132812 60.734375 C 93.226562 60.824219 93.320312 61.011719 93.414062 61.105469 C 93.507812 61.199219 93.972656 60.824219 93.972656 60.824219 L 94.253906 60.640625 L 94.347656 60.824219 C 94.347656 60.824219 94.347656 60.917969 94.160156 61.011719 C 94.066406 61.011719 94.066406 61.199219 93.789062 61.292969 C 93.601562 61.480469 93.414062 61.574219 93.320312 61.667969 C 93.226562 61.757812 92.855469 61.757812 92.761719 61.757812 L 92.667969 61.757812 L 92.667969 78.558594 Z M 93.507812 51.957031 L 93.882812 51.867188 C 93.882812 51.867188 93.972656 52.050781 93.882812 52.332031 C 93.882812 52.613281 93.882812 52.984375 93.972656 52.984375 C 93.972656 53.078125 94.066406 53.078125 94.160156 53.078125 C 94.347656 53.078125 94.441406 53.359375 94.628906 53.359375 C 94.816406 53.453125 94.90625 53.640625 94.90625 53.730469 C 94.90625 53.917969 94.722656 53.917969 94.722656 54.292969 C 94.628906 54.574219 95.09375 54.574219 95.28125 54.664062 C 95.46875 54.757812 96.121094 54.757812 96.121094 54.851562 C 96.121094 54.851562 96.214844 55.039062 96.214844 55.132812 L 96.214844 37.023438 L 92.761719 37.023438 L 92.761719 53.171875 C 92.761719 52.984375 93.042969 52.519531 93.132812 52.425781 C 93.226562 52.238281 93.507812 51.957031 93.507812 51.957031 Z M 95 57.1875 C 95 57.1875 95.09375 57 95.09375 56.90625 C 95.09375 56.8125 95.09375 56.71875 95.1875 56.625 C 95.28125 56.53125 95.46875 56.53125 95.65625 56.53125 C 95.746094 56.53125 96.027344 56.4375 96.214844 56.347656 L 96.214844 55.320312 C 96.214844 55.320312 96.214844 55.414062 96.121094 55.414062 C 95.933594 55.414062 95.933594 55.785156 95.746094 55.878906 C 95.5625 55.972656 95.09375 56.066406 95 56.253906 C 94.816406 56.4375 95.09375 56.53125 95.09375 56.625 C 95.09375 56.71875 95 56.71875 94.90625 56.90625 C 94.722656 57.09375 95 57.1875 95 57.1875 Z M 95 57.1875 "/><path style=" stroke:none;fill-rule:nonzero;fill:#00583c;fill-opacity:1;" d="M 103.308594 68.199219 L 103.308594 37.023438 L 99.855469 37.023438 L 99.855469 71.652344 L 134.484375 71.652344 L 134.484375 68.199219 Z M 103.308594 68.199219 "/><path style=" stroke:none;fill-rule:nonzero;fill:#00583c;fill-opacity:1;" d="M 134.484375 64.558594 L 134.484375 61.105469 L 110.402344 61.105469 L 110.402344 37.023438 L 106.949219 37.023438 L 106.949219 64.464844 Z M 134.484375 64.558594 "/><path style=" stroke:none;fill-rule:nonzero;fill:#00583c;fill-opacity:1;" d="M 134.484375 57.464844 L 134.484375 54.011719 L 117.496094 54.011719 L 117.496094 37.023438 L 114.042969 37.023438 L 114.042969 57.371094 Z M 134.484375 57.464844 "/><path style=" stroke:none;fill-rule:nonzero;fill:#00583c;fill-opacity:1;" d="M 134.484375 50.371094 L 134.484375 46.917969 L 124.589844 46.917969 L 124.589844 37.023438 L 121.136719 37.023438 L 121.136719 50.371094 Z M 134.484375 50.371094 "/><path style=" stroke:none;fill-rule:nonzero;fill:#00583c;fill-opacity:1;" d="M 134.484375 43.277344 L 134.484375 39.824219 L 131.683594 39.824219 L 131.683594 37.023438 L 128.230469 37.023438 L 128.230469 43.277344 Z M 82.027344 50 L 82.027344 50.371094 C 82.121094 50.277344 82.121094 50.277344 82.121094 50.183594 C 82.121094 50.09375 82.027344 50.09375 82.027344 50 Z M 147.738281 124.949219 L 147.738281 78.933594 L 155.296875 78.933594 L 155.296875 118.507812 L 174.804688 118.507812 L 174.804688 124.949219 Z M 210.929688 124.855469 L 206.355469 112.164062 L 188.992188 112.164062 L 184.511719 124.855469 L 176.671875 124.855469 L 193.753906 78.933594 L 201.875 78.933594 L 218.863281 124.949219 L 210.929688 124.949219 Z M 204.488281 105.628906 L 200.195312 93.214844 C 199.914062 92.375 199.449219 91.066406 198.886719 89.292969 C 198.328125 87.519531 197.953125 86.214844 197.765625 85.375 C 197.207031 87.894531 196.367188 90.695312 195.339844 93.773438 L 191.234375 105.628906 Z M 228.289062 124.949219 L 220.820312 124.949219 L 220.820312 78.933594 L 246.769531 78.933594 L 246.769531 85.28125 L 228.289062 85.28125 L 228.289062 99.65625 L 245.648438 99.65625 L 245.648438 106.003906 L 228.289062 106.003906 Z M 254.144531 124.949219 L 254.144531 78.933594 L 261.703125 78.933594 L 261.703125 124.949219 Z M 298.011719 112.164062 C 298.011719 116.175781 296.613281 119.257812 293.71875 121.496094 C 290.824219 123.738281 286.90625 124.855469 281.867188 124.855469 C 276.824219 124.855469 272.625 124.109375 269.453125 122.523438 L 269.453125 115.617188 C 271.503906 116.550781 273.652344 117.296875 275.984375 117.855469 C 278.320312 118.417969 280.371094 118.695312 282.425781 118.695312 C 285.320312 118.695312 287.464844 118.136719 288.867188 117.015625 C 290.265625 115.894531 290.917969 114.402344 290.917969 112.535156 C 290.917969 110.855469 290.265625 109.457031 289.050781 108.242188 C 287.746094 107.121094 285.132812 105.722656 281.210938 104.136719 C 277.105469 102.457031 274.304688 100.589844 272.625 98.441406 C 270.945312 96.292969 270.105469 93.773438 270.105469 90.789062 C 270.105469 87.054688 271.410156 84.160156 274.117188 82.015625 C 276.730469 79.867188 280.371094 78.839844 284.757812 78.839844 C 289.050781 78.839844 293.347656 79.773438 297.546875 81.640625 L 295.214844 87.613281 C 291.199219 85.933594 287.652344 85.09375 284.574219 85.09375 C 282.238281 85.09375 280.371094 85.65625 279.160156 86.679688 C 277.945312 87.707031 277.292969 89.109375 277.292969 90.789062 C 277.292969 91.90625 277.570312 92.933594 278.039062 93.773438 C 278.503906 94.613281 279.34375 95.363281 280.464844 96.109375 C 281.585938 96.855469 283.640625 97.789062 286.53125 99 C 289.800781 100.402344 292.226562 101.617188 293.71875 102.828125 C 295.214844 104.042969 296.332031 105.347656 297.078125 106.84375 C 297.640625 108.335938 298.011719 110.109375 298.011719 112.164062 Z M 331.800781 124.949219 L 305.761719 124.949219 L 305.761719 78.933594 L 331.800781 78.933594 L 331.800781 85.28125 L 313.320312 85.28125 L 313.320312 97.789062 L 330.683594 97.789062 L 330.683594 104.042969 L 313.320312 104.042969 L 313.320312 118.507812 L 331.800781 118.507812 Z M 147.738281 40.476562 L 156.324219 40.476562 C 160.339844 40.476562 163.230469 41.039062 165.003906 42.25 C 166.777344 43.371094 167.710938 45.238281 167.710938 47.757812 C 167.710938 49.4375 167.246094 50.839844 166.40625 51.957031 C 165.566406 53.078125 164.257812 53.824219 162.671875 54.105469 L 162.671875 54.292969 C 164.726562 54.664062 166.21875 55.414062 167.152344 56.53125 C 168.085938 57.652344 168.550781 59.238281 168.550781 61.105469 C 168.550781 63.71875 167.617188 65.773438 165.84375 67.265625 C 163.980469 68.761719 161.457031 69.507812 158.285156 69.507812 L 147.832031 69.507812 L 147.832031 40.476562 Z M 152.496094 52.425781 L 157.070312 52.425781 C 159.03125 52.425781 160.523438 52.144531 161.457031 51.492188 C 162.390625 50.839844 162.859375 49.8125 162.859375 48.320312 C 162.859375 46.917969 162.390625 45.984375 161.363281 45.332031 C 160.339844 44.679688 158.84375 44.398438 156.699219 44.398438 L 152.589844 44.398438 Z M 152.496094 56.347656 L 152.496094 65.585938 L 157.539062 65.585938 C 159.5 65.585938 160.992188 65.214844 162.019531 64.464844 C 163.046875 63.71875 163.511719 62.507812 163.511719 60.824219 C 163.511719 59.332031 162.953125 58.210938 161.925781 57.464844 C 160.898438 56.71875 159.3125 56.347656 157.257812 56.347656 Z M 187.5 69.507812 L 186.566406 66.425781 L 186.378906 66.425781 C 185.351562 67.734375 184.234375 68.667969 183.207031 69.132812 C 182.085938 69.601562 180.78125 69.878906 179.097656 69.878906 C 176.953125 69.878906 175.273438 69.320312 174.058594 68.105469 C 172.847656 66.988281 172.285156 65.304688 172.285156 63.160156 C 172.285156 60.917969 173.125 59.144531 174.804688 58.027344 C 176.484375 56.90625 179.097656 56.253906 182.460938 56.160156 L 186.285156 56.066406 L 186.285156 54.851562 C 186.285156 53.453125 185.914062 52.425781 185.261719 51.679688 C 184.605469 51.027344 183.578125 50.652344 182.179688 50.652344 C 181.058594 50.652344 179.941406 50.839844 178.914062 51.117188 C 177.886719 51.492188 176.859375 51.867188 175.925781 52.332031 L 174.433594 49.066406 C 175.644531 48.410156 176.953125 47.945312 178.351562 47.664062 C 179.753906 47.386719 181.152344 47.199219 182.367188 47.199219 C 185.167969 47.199219 187.3125 47.851562 188.714844 49.066406 C 190.113281 50.277344 190.859375 52.238281 190.859375 54.851562 L 190.859375 69.691406 L 187.5 69.691406 Z M 180.5 66.332031 C 182.179688 66.332031 183.578125 65.867188 184.605469 64.933594 C 185.632812 64 186.191406 62.691406 186.191406 60.917969 L 186.191406 59.050781 L 183.394531 59.144531 C 181.152344 59.238281 179.566406 59.613281 178.632812 60.265625 C 177.605469 60.917969 177.140625 61.945312 177.140625 63.253906 C 177.140625 64.28125 177.417969 65.027344 177.980469 65.492188 C 178.539062 66.054688 179.378906 66.332031 180.5 66.332031 Z M 216.339844 69.507812 L 211.675781 69.507812 L 211.675781 55.972656 C 211.675781 54.292969 211.300781 52.984375 210.648438 52.144531 C 209.996094 51.304688 208.875 50.933594 207.382812 50.933594 C 205.421875 50.933594 203.925781 51.492188 203.085938 52.707031 C 202.152344 53.917969 201.6875 55.785156 201.6875 58.585938 L 201.6875 69.507812 L 197.019531 69.507812 L 197.019531 47.570312 L 200.660156 47.570312 L 201.3125 50.464844 L 201.59375 50.464844 C 202.246094 49.4375 203.179688 48.597656 204.394531 48.039062 C 205.609375 47.480469 207.007812 47.199219 208.40625 47.199219 C 213.726562 47.199219 216.339844 49.90625 216.339844 55.226562 Z M 231.277344 69.878906 C 227.914062 69.878906 225.394531 68.945312 223.714844 66.988281 C 221.941406 65.027344 221.101562 62.226562 221.101562 58.585938 C 221.101562 54.851562 222.035156 52.050781 223.808594 50.09375 C 225.582031 48.132812 228.195312 47.105469 231.648438 47.105469 C 233.984375 47.105469 236.035156 47.570312 237.902344 48.414062 L 236.503906 52.144531 C 234.542969 51.398438 232.863281 51.027344 231.648438 51.027344 C 227.824219 51.027344 225.957031 53.546875 225.957031 58.585938 C 225.957031 61.011719 226.421875 62.878906 227.355469 64.1875 C 228.289062 65.398438 229.6875 66.054688 231.554688 66.054688 C 233.609375 66.054688 235.570312 65.492188 237.4375 64.464844 L 237.4375 68.574219 C 236.597656 69.039062 235.664062 69.414062 234.730469 69.601562 C 233.796875 69.785156 232.582031 69.878906 231.277344 69.878906 Z M 261.609375 58.492188 C 261.609375 62.039062 260.675781 64.933594 258.8125 66.894531 C 256.945312 68.945312 254.425781 69.878906 251.15625 69.878906 C 249.105469 69.878906 247.332031 69.414062 245.742188 68.480469 C 244.15625 67.546875 242.941406 66.238281 242.101562 64.464844 C 241.261719 62.691406 240.796875 60.734375 240.796875 58.398438 C 240.796875 54.851562 241.730469 52.050781 243.503906 50.09375 C 245.371094 48.132812 247.890625 47.105469 251.25 47.105469 C 254.425781 47.105469 256.945312 48.132812 258.8125 50.183594 C 260.675781 52.238281 261.609375 55.039062 261.609375 58.492188 Z M 245.648438 58.492188 C 245.648438 63.53125 247.515625 66.144531 251.25 66.144531 C 254.984375 66.144531 256.851562 63.625 256.851562 58.492188 C 256.851562 53.453125 254.984375 50.933594 251.25 50.933594 C 249.289062 50.933594 247.890625 51.585938 246.957031 52.890625 C 246.117188 54.199219 245.648438 56.066406 245.648438 58.492188 Z M 245.648438 58.492188 "/></g></g></g></g></g></g></g></svg>